<svg id="Layer_1" data-name="Layer 1" xmlns="http://www.w3.org/2000/svg" width="1391" height="230.3" viewBox="0 0 1391 230.3"><title>icons</title><path d="M147.2,32.1V137.6h24.1L128,185.7,84.7,137.6h24.1V32.1Zm19.2-19.2H89.6V118.4h-48l86.4,96,86.4-96h-48Zm28.8,182.3v28.7H60.8V195.2H41.6v47.9H214.4V195.2Z" transform="translate(-41.6 -12.9)"/><path d="M1027.6,103.3c2.1-10,13.8-55.7,48.1-55.7,19.8,0,41.2,13.9,41.2,44.7,0,34.9-32.4,75.6-89.3,112.8-56.9-37.2-89.3-77.9-89.3-112.8,0-31.1,21.2-44.7,40.9-44.7C1014.2,47.6,1025.1,93.4,1027.6,103.3Zm-107.1-11c0,36.3,27.3,84.7,107.1,133.9,79.9-49.2,107.2-97.6,107.2-133.9,0-71.1-86.2-80.6-107.2-33.4C1006.7,11.9,920.5,20.8,920.5,92.3Z" transform="translate(-41.6 -12.9)"/><path d="M1432.6,102.3h-34.3V59.4h-42.8V25.2h77.1Zm-77.1,128.5V196.6h42.8V153.7h34.3v77.1Zm-128.6-77.1h34.3v42.9h42.9v34.2h-77.2Zm77.2-128.5V59.4h-42.9v42.9h-34.3V25.2Z" transform="translate(-41.6 -12.9)"/><path d="M321.2,128l96.7,27.2,61.6-71.1-71.7,49.8-37.9-10.6,135-67.5L470,183.9l-33-29.3-19.1,25.7v-6.8l-17.5-4.9v64.9l39.3-53,39.8,35.4L532.2,22.5Z" transform="translate(-41.6 -12.9)"/><path d="M802.1,50c-21.2-17-50-26.7-79-26.7s-57.7,9.5-79.2,26.8-34.8,42.6-34.8,69a84.6,84.6,0,0,0,18.1,52.2l-20.4,65.3,71.1-30.7a182.9,182.9,0,0,0,43.9,5.6c32.1,0,61.4-9.7,82.7-27.2S837,143.9,837,119.1C837,92.6,824.6,68.1,802.1,50ZM721.8,193c-17.3,0-31.3-3-43.8-6.2l-1.6-.4-39.9,17.3,11.4-36.5-1.7-1.9c-9.6-11.6-18.6-25.2-18.6-46.2,0-42.6,42.8-77.3,95.5-77.3s95.4,34.7,95.4,77.3S777,193,721.8,193Z" transform="translate(-41.6 -12.9)" fill-rule="evenodd"/><circle cx="726.9" cy="106.2" r="18.3"/><path d="M723.1,137.4A18.4,18.4,0,1,1,741.4,119,18.5,18.5,0,0,1,723.1,137.4Z" transform="translate(-41.6 -12.9)" fill-rule="evenodd"/><path d="M677.6,137.4A18.4,18.4,0,1,1,695.9,119,18.4,18.4,0,0,1,677.6,137.4Z" transform="translate(-41.6 -12.9)" fill-rule="evenodd"/></svg>